<svg xmlns="http://www.w3.org/2000/svg" viewBox="0 0 80 38"><style>.st0{fill:#fff}</style><path class="st0" d="M10.9 26.7l5.6-14.3h3.4l5.6 14.3h-3.2l-1.5-3.8h-5.9l-1.5 3.8h-2.5zm4.6-5.7H20l-2.2-5.7-2.3 5.7zM.3 26.6v-2.5c1.1.5 2 .8 2.5.8.6.1 1.1.1 1.5.1.8 0 1.5-.2 1.9-.6.4-.4.6-.8.6-1.3 0-.4-.1-.8-.3-1.1-.2-.3-.8-.7-1.7-1.2l-1-.5c-1.4-.8-2.3-1.5-2.8-2.1-.5-.7-.7-1.4-.7-2.3 0-1.1.4-2 1.2-2.8.8-.8 2-1.2 3.6-1.2 1.2 0 2.5.2 3.9.5v2.3c-1.5-.4-2.7-.7-3.5-.7-.7 0-1.3.2-1.6.5-.4.3-.6.7-.6 1.1 0 .3.1.7.3.9.2.3.8.7 1.7 1.2l1 .6c1.6.9 2.6 1.7 3 2.3.5.7.7 1.4.7 2.2 0 1.2-.4 2.2-1.3 3-.9.8-2.3 1.2-4.3 1.2-1.2.1-2.5-.1-4.1-.4zM44.8 26.7V12.4h3v14.3h-3zM58 27.1c-1.5 0-2.8-.3-3.9-.9-1.1-.6-1.9-1.5-2.5-2.7-.6-1.2-.9-2.5-.9-3.9 0-1.5.3-2.8.9-3.9s1.4-2.1 2.5-2.7c1.1-.6 2.4-.9 3.9-.9s2.8.3 3.9.9c1.1.6 2 1.5 2.5 2.7.6 1.2.9 2.5.9 3.9 0 1.5-.3 2.8-.9 3.9-.6 1.2-1.4 2-2.5 2.7-1.1.6-2.4.9-3.9.9zm0-2c1.4 0 2.4-.6 3.1-1.7.7-1.1 1-2.4 1-3.9s-.3-2.8-1-3.9S59.4 14 58 14c-1.4 0-2.4.6-3.1 1.7-.7 1.1-1 2.4-1 3.9s.3 2.7 1 3.9c.7 1 1.7 1.6 3.1 1.6zM68.3 26.7V12.4h2.8l6.3 9.4v-9.4h2.3v14.3h-2.5l-6.6-9.8v9.8h-2.3zM28.2 14.4c-.8 2-1.3 4.2-1.3 6.4 0 1.4.2 2.8.5 4.1l5.2-5.2-4.4-5.3zM44 3.6c-2.4 0-5 .6-7.2 1.7C33.5 1.9 29.2 0 24.6 0h-.1v2.9h.1c3.5 0 6.9 1.4 9.4 3.9l.1.1H34c-2 1.5-3.7 3.3-4.9 5.5h1.6l4.1 4.9 3.5-3.5h-1.2v-1.4h3.5c-.4-1.6-1.1-3.2-2.1-4.6v-.1h.1c1.7-.7 3.6-1.1 5.3-1.1h.8v-3H44zM36.4 19.1l3.6 4.3c.9-2 1.3-4.3 1.3-6.5 0-.9-.1-1.7-.2-2.5l-4.7 4.7zM44 35.1c-3.7 0-7.4-1.6-10-4.3l-.1-.1h.1c1.7-1.2 3.1-2.6 4.3-4.2l-4.2-5-4 4.1h1.2v1.2H28c.4 1 .9 2 1.4 3v.1h-.1c-1.5.6-3.1.9-4.8.9h-.1v2.9h.1c2.3 0 4.5-.5 6.6-1.4C34.5 35.8 39.2 38 44 38h.8v-2.9H44z"/></svg>